<svg
            width="80"
            height="80"
            viewBox="0 0 80 80"
            fill="none"
            xmlns="http://www.w3.org/2000/svg"
          >
            <g clip-path="url(#clip0)">
              <path
                d="M50.7143 37.8571V30.3571C50.7143 29.7654 50.2346 29.2857 49.6428 29.2857H42.1429C42.1429 26.9188 40.2241 25 37.8571 25C35.4902 25 33.5714 26.9188 33.5714 29.2857H26.0714C25.4797 29.2857 25 29.7654 25 30.3571V38.0092C25.3491 37.9128 25.7092 37.8617 26.0714 37.8571C28.4384 37.8571 30.3572 39.7759 30.3572 42.1429C30.3572 44.5098 28.4384 46.4286 26.0714 46.4286C25.7092 46.424 25.3491 46.3729 25 46.2764V53.9285C25 54.5203 25.4797 55 26.0714 55H33.7236C33.6271 54.6509 33.576 54.2908 33.5715 53.9285C33.5715 51.5616 35.4902 49.6428 37.8572 49.6428C40.2242 49.6428 42.1429 51.5616 42.1429 53.9285C42.1384 54.2907 42.0872 54.6508 41.9908 55H49.6429C50.2347 55 50.7144 54.5203 50.7144 53.9285V46.4285C53.0814 46.4285 55.0001 44.5098 55.0001 42.1428C55.0001 39.7758 53.0812 37.8571 50.7143 37.8571Z"
                fill="#00A051"
              ></path>
            </g>
            <rect
              width="80"
              height="80"
              rx="40"
              fill="#00A051"
              fill-opacity="0.1"
            ></rect>
            <defs>
              <clipPath id="clip0">
                <rect
                  width="30"
                  height="30"
                  fill="white"
                  transform="translate(25 25)"
                ></rect>
              </clipPath>
            </defs>
          </svg>