<svg
            width="80"
            height="80"
            viewBox="0 0 80 80"
            fill="none"
            xmlns="http://www.w3.org/2000/svg"
          >
            <rect
              width="80"
              height="80"
              rx="40"
              fill="#00A051"
              fill-opacity="0.1"
            ></rect>
            <path
              d="M30.2365 57.7187C32.5183 57.7187 34.6993 57.2549 36.092 55.8622C38.5015 53.4528 38.4929 49.5609 36.092 47.1624C33.7705 44.8384 29.7138 44.8384 27.3922 47.1624C24.1937 50.3598 21.6063 52.8124 19 55.2674L20.901 55.9403C21.6376 56.2011 26.1041 57.7187 30.2365 57.7187Z"
              fill="#00A051"
            ></path>
            <path
              d="M39.834 48.6403L43.4139 45.0604L38.1938 39.8408L34.5764 43.4581C35.8029 43.873 36.9331 44.5211 37.8337 45.4231C38.7549 46.3429 39.4114 47.4469 39.834 48.6403Z"
              fill="#00A051"
            ></path>
            <path
              d="M39.937 38.1104L55.768 22.2793L60.9871 27.4984L45.1561 43.3294L39.937 38.1104Z"
              fill="#00A051"
            ></path>
          </svg>