          <svg
            width="80"
            height="80"
            viewBox="0 0 80 80"
            fill="none"
            xmlns="http://www.w3.org/2000/svg"
          >
            <rect
              width="80"
              height="80"
              rx="40"
              fill="#00A051"
              fill-opacity="0.1"
            ></rect>
            <path
              d="M46.6597 45.7838L40.0059 40.7236L33.4847 45.7803C32.9401 46.1991 32.6215 46.8475 32.6228 47.5343V50.3279H47.5408V47.5506C47.5367 46.8568 47.2114 46.2042 46.6597 45.7838Z"
              fill="#00A051"
            ></path>
            <path
              d="M30.7803 25H49.1378C49.2066 25 49.2623 25.0557 49.2623 25.1246V28.4C49.2623 28.4689 49.2066 28.5246 49.1378 28.5246H30.7803C30.7115 28.5246 30.6558 28.4689 30.6558 28.4V25.1246C30.6558 25.0557 30.7115 25 30.7803 25V25Z"
              fill="#00A051"
            ></path>
            <path
              d="M30.7803 51.4753H49.1378C49.2066 51.4753 49.2623 51.5311 49.2623 51.5999V54.8754C49.2623 54.9442 49.2066 54.9999 49.1378 54.9999H30.7803C30.7115 54.9999 30.6558 54.9442 30.6558 54.8754V51.5999C30.6558 51.5311 30.7115 51.4753 30.7803 51.4753Z"
              fill="#00A051"
            ></path>
            <path
              d="M32.541 32.2381C32.5407 32.9133 32.8487 33.5518 33.3777 33.9716L39.9984 39.2652L46.6211 33.9716C47.1504 33.5518 47.459 32.9133 47.459 32.2381V29.6721H32.541V32.2381Z"
              fill="#00A051"
            ></path>
          </svg>
