          <svg
            width="80"
            height="80"
            viewBox="0 0 80 80"
            fill="none"
            xmlns="http://www.w3.org/2000/svg"
          >
            <rect
              width="80"
              height="80"
              rx="40"
              fill="#00A051"
              fill-opacity="0.1"
            ></rect>
            <g clip-path="url(#clip0)">
              <path
                d="M52.5928 44.6916C50.7561 44.6916 48.9527 44.4043 47.2437 43.8395C46.4062 43.5539 45.3768 43.8159 44.8657 44.3409L41.4925 46.8873C37.5805 44.7991 35.1709 42.3902 33.1112 38.5076L35.5827 35.2223C36.2248 34.581 36.4551 33.6443 36.1791 32.7654C35.612 31.0474 35.3238 29.2448 35.3238 27.4073C35.3239 26.0799 34.244 25 32.9166 25H27.4073C26.0799 25 25 26.0799 25 27.4073C25 42.6221 37.378 55 52.5928 55C53.9202 55 55.0001 53.9201 55.0001 52.5927V47.0988C55 45.7715 53.9201 44.6916 52.5928 44.6916Z"
                fill="#00A051"
              ></path>
            </g>
            <defs>
              <clipPath id="clip0">
                <rect
                  width="30"
                  height="30"
                  fill="white"
                  transform="translate(25 25)"
                ></rect>
              </clipPath>
            </defs>
          </svg>