<svg width="20" height="19" viewBox="0 0 20 19" fill="none" xmlns="http://www.w3.org/2000/svg"><path d="M16.8 4.48416H1.8V3.88416L15 2.82816V3.88416H16.8V2.08416C16.8 0.764163 15.7308 -0.162237 14.4252 0.0237633L2.376 1.74456C1.0692 1.93176 0 3.16416 0 4.48416V16.4842C0 17.1207 0.252856 17.7311 0.702944 18.1812C1.15303 18.6313 1.76348 18.8842 2.4 18.8842H16.8C17.4365 18.8842 18.047 18.6313 18.4971 18.1812C18.9471 17.7311 19.2 17.1207 19.2 16.4842V6.88416C19.2 6.24764 18.9471 5.63719 18.4971 5.18711C18.047 4.73702 17.4365 4.48416 16.8 4.48416V4.48416ZM15 12.8914C14.7635 12.8913 14.5294 12.8446 14.311 12.7541C14.0926 12.6635 13.8941 12.5308 13.727 12.3636C13.5598 12.1963 13.4272 11.9978 13.3368 11.7793C13.2464 11.5608 13.1999 11.3266 13.2 11.0902C13.2001 10.8537 13.2467 10.6196 13.3373 10.4011C13.4279 10.1827 13.5605 9.98427 13.7278 9.81712C13.8951 9.64998 14.0936 9.51741 14.3121 9.427C14.5306 9.33658 14.7647 9.29008 15.0012 9.29016C15.4787 9.29032 15.9367 9.48018 16.2742 9.81797C16.6118 10.1558 16.8014 10.6138 16.8012 11.0914C16.801 11.5689 16.6112 12.0268 16.2734 12.3644C15.9356 12.702 15.4775 12.8915 15 12.8914Z" fill="#00A051"></path></svg>