<svg width="18" height="18" viewBox="0 0 18 18" fill="none" xmlns="http://www.w3.org/2000/svg"><g clip-path="url(#clip0)"><path d="M2.25039 9.90039C1.53039 9.90039 0.900391 10.5304 0.900391 11.2504V16.6504C0.900391 17.3704 1.53039 18.0004 2.25039 18.0004C2.97039 18.0004 3.60039 17.3704 3.60039 16.6504V11.2504C3.60039 10.5304 2.97039 9.90039 2.25039 9.90039Z" fill="#F79E1B"></path><path d="M6.75039 6.2998C6.03039 6.2998 5.40039 6.9298 5.40039 7.6498V16.6498C5.40039 17.3698 6.03039 17.9998 6.75039 17.9998C7.47038 17.9998 8.10038 17.3698 8.10038 16.6498V7.6498C8.10038 6.9298 7.47038 6.2998 6.75039 6.2998Z" fill="#F79E1B"></path><path d="M11.2504 3.59961C10.5304 3.59961 9.90039 4.22961 9.90039 4.94961V16.6496C9.90039 17.3696 10.5304 17.9996 11.2504 17.9996C11.9704 17.9996 12.6004 17.3696 12.6004 16.6496V4.94961C12.6004 4.22961 11.9704 3.59961 11.2504 3.59961Z" fill="#F79E1B"></path><path d="M15.7504 0C15.0304 0 14.4004 0.63 14.4004 1.35V16.65C14.4004 17.37 15.0304 18 15.7504 18C16.4704 18 17.1004 17.37 17.1004 16.65V1.35C17.1004 0.63 16.4704 0 15.7504 0Z" fill="#F79E1B"></path></g><defs><clipPath id="clip0"><rect width="18" height="18" fill="white"></rect></clipPath></defs></svg>