<svg width="16" height="24" viewBox="0 0 16 24" fill="none" xmlns="http://www.w3.org/2000/svg"><path fill-rule="evenodd" clip-rule="evenodd" d="M0.5 3C0.5 2.20435 0.81607 1.44129 1.37868 0.87868C1.94129 0.316071 2.70435 0 3.5 0L12.5 0C13.2956 0 14.0587 0.316071 14.6213 0.87868C15.1839 1.44129 15.5 2.20435 15.5 3V21C15.5 21.7956 15.1839 22.5587 14.6213 23.1213C14.0587 23.6839 13.2956 24 12.5 24H3.5C2.70435 24 1.94129 23.6839 1.37868 23.1213C0.81607 22.5587 0.5 21.7956 0.5 21V3ZM9.5 19.5C9.5 19.8978 9.34196 20.2794 9.06066 20.5607C8.77936 20.842 8.39782 21 8 21C7.60218 21 7.22064 20.842 6.93934 20.5607C6.65804 20.2794 6.5 19.8978 6.5 19.5C6.5 19.1022 6.65804 18.7206 6.93934 18.4393C7.22064 18.158 7.60218 18 8 18C8.39782 18 8.77936 18.158 9.06066 18.4393C9.34196 18.7206 9.5 19.1022 9.5 19.5V19.5Z" fill="#F98C65"></path></svg>