<svg
                width="28"
                height="65"
                viewBox="0 0 52 65"
                fill="none"
                xmlns="http://www.w3.org/2000/svg"
              >
                <path
                  fill-rule="evenodd"
                  clip-rule="evenodd"
                  d="M19.1688 3.5015C19.3348 6.9985 19.3368 7.0025 20.7938 7.0025C22.0888 7.0025 22.2528 7.175 22.2528 8.5355C22.2528 9.9135 22.3923 10.053 23.6278 9.9105C24.7168 9.7855 25.0043 9.4925 25.0098 8.5025C25.0153 7.5145 25.3033 7.2195 26.3848 7.0945C27.7288 6.939 27.7528 6.875 27.7528 3.4695V0.00250006L23.3778 0.00150013L19.0028 0L19.1688 3.5015ZM2.87779 14.9745C1.5203 16.107 1.50679 16.4175 2.75329 17.913C3.70179 19.051 3.7448 19.056 4.9708 18.163C6.4678 17.073 6.5153 16.607 5.2808 15.1275C4.1658 13.7905 4.2873 13.7985 2.87779 14.9745ZM18.0698 14.763C6.2473 17.757 -1.5852 29.2485 0.272295 40.8755C1.4793 48.429 6.4783 54.9965 13.5928 58.3755C17.0768 60.03 18.0023 60.2475 22.3033 60.42C25.8113 60.561 27.9003 60.3855 30.0088 59.7725L32.9018 58.931L35.7038 61.704L38.5058 64.4765L40.6293 62.322C41.7973 61.1365 42.7528 59.9885 42.7528 59.7705C42.7528 59.0245 31.5273 47.0025 30.8308 47.0025C30.6273 47.0025 29.4733 48.0085 28.2668 49.2385C26.1128 51.433 26.0893 51.493 26.9928 52.4915C27.4993 53.051 27.7453 53.676 27.5403 53.8805C26.7633 54.6545 20.0128 54.234 17.2863 53.2415C13.8618 51.995 9.6203 48.1855 7.8858 44.7985C6.00929 41.134 5.7363 35.365 7.2488 31.354C8.5773 27.8325 12.3913 23.751 16.0028 21.986C18.1428 20.94 19.2228 20.763 23.5028 20.7585C27.8053 20.7535 28.8513 20.9235 31.0028 21.9795C36.2853 24.5715 40.4098 30.139 40.8358 35.2525L41.0028 37.2525L38.3778 37.4035C36.9338 37.487 35.7528 37.6785 35.7528 37.83C35.7528 38.1455 43.0733 46.985 43.4683 47.1465C43.6113 47.2045 45.5298 45.115 47.7308 42.5025L51.7328 37.7525L49.5863 37.604L47.4398 37.4555L46.8173 33.751C44.9753 22.7865 36.0658 14.891 24.8013 14.24C22.3873 14.1 19.9338 14.291 18.0698 14.763ZM42.7603 15.7445C41.6018 16.978 41.5993 17.005 42.5403 18.1225C43.0638 18.744 43.5353 19.331 43.5883 19.4265C43.7808 19.7755 46.2218 17.737 46.2373 17.2145C46.2458 16.919 45.7308 16.1865 45.0928 15.587L43.9323 14.497L42.7603 15.7445ZM28.5848 31.5345C26.7308 33.043 25.7298 33.5025 24.2968 33.5025C20.8148 33.5025 18.9938 37.337 21.1883 40.047C21.8653 40.8835 22.6428 41.2025 24.0028 41.2025C26.3683 41.2025 27.7528 39.665 27.7528 37.0375C27.7528 35.654 28.2608 34.502 29.7528 32.5025C32.5928 28.696 32.3348 28.4825 28.5848 31.5345Z"
                  fill="#003399"
                ></path>
              </svg>