<svg width="22" height="18" viewBox="0 0 22 18" fill="none" xmlns="http://www.w3.org/2000/svg"><path d="M7.89158 9H9.94737C11.078 9 12.1624 9.44915 12.9619 10.2487C13.7614 11.0481 14.2105 12.1325 14.2105 13.2632H7.578L7.57895 14.2105H15.1579V13.2632C15.1549 12.2551 14.8637 11.269 14.3185 10.4211H17.0526C17.9481 10.4208 18.8254 10.6744 19.5826 11.1525C20.3398 11.6305 20.9461 12.3134 21.3309 13.122C19.0904 16.0787 15.4629 18 11.3684 18C8.75274 18 6.53684 17.4411 4.73684 16.4605V7.64621C5.88942 7.81131 6.97782 8.27838 7.89158 9V9ZM3.78947 16.1053C3.78947 16.3565 3.68966 16.5975 3.512 16.7752C3.33433 16.9528 3.09336 17.0526 2.84211 17.0526H0.947368C0.696111 17.0526 0.455144 16.9528 0.277478 16.7752C0.0998117 16.5975 0 16.3565 0 16.1053V7.57895C0 7.32769 0.0998117 7.08672 0.277478 6.90906C0.455144 6.73139 0.696111 6.63158 0.947368 6.63158H2.84211C3.09336 6.63158 3.33433 6.73139 3.512 6.90906C3.68966 7.08672 3.78947 7.32769 3.78947 7.57895V16.1053ZM16.1053 2.84211C16.859 2.84211 17.5819 3.14154 18.1149 3.67454C18.6479 4.20754 18.9474 4.93044 18.9474 5.68421C18.9474 6.43798 18.6479 7.16088 18.1149 7.69388C17.5819 8.22688 16.859 8.52632 16.1053 8.52632C15.3515 8.52632 14.6286 8.22688 14.0956 7.69388C13.5626 7.16088 13.2632 6.43798 13.2632 5.68421C13.2632 4.93044 13.5626 4.20754 14.0956 3.67454C14.6286 3.14154 15.3515 2.84211 16.1053 2.84211ZM9.47368 0C10.2275 0 10.9504 0.299435 11.4834 0.832433C12.0164 1.36543 12.3158 2.08833 12.3158 2.84211C12.3158 3.59588 12.0164 4.31878 11.4834 4.85178C10.9504 5.38478 10.2275 5.68421 9.47368 5.68421C8.71991 5.68421 7.99701 5.38478 7.46401 4.85178C6.93101 4.31878 6.63158 3.59588 6.63158 2.84211C6.63158 2.08833 6.93101 1.36543 7.46401 0.832433C7.99701 0.299435 8.71991 0 9.47368 0V0Z" fill="white"></path></svg>