<svg width="19" height="18" viewBox="0 0 19 18" fill="none" xmlns="http://www.w3.org/2000/svg"><path d="M16.0134 4.27421H1.71572V3.70231L14.2977 2.69575V3.70231H16.0134V1.98658C16.0134 0.728385 14.9943 -0.154641 13.7498 0.0226507L2.26475 1.66288C1.01914 1.84132 0 3.01602 0 4.27421V15.7124C0 16.3191 0.241017 16.901 0.670032 17.33C1.09905 17.759 1.68091 18 2.28763 18H16.0134C16.6201 18 17.202 17.759 17.631 17.33C18.06 16.901 18.301 16.3191 18.301 15.7124V6.56184C18.301 5.95513 18.06 5.37326 17.631 4.94424C17.202 4.51523 16.6201 4.27421 16.0134 4.27421V4.27421ZM14.2977 12.2878C14.0723 12.2877 13.8491 12.2432 13.6409 12.1569C13.4327 12.0706 13.2436 11.9441 13.0843 11.7847C12.9249 11.6253 12.7986 11.436 12.7124 11.2278C12.6262 11.0195 12.5819 10.7963 12.582 10.5709C12.582 10.3455 12.6265 10.1224 12.7128 9.91416C12.7992 9.70596 12.9256 9.5168 13.0851 9.35748C13.2445 9.19816 13.4337 9.0718 13.642 8.98562C13.8503 8.89944 14.0735 8.85512 14.2988 8.85519C14.754 8.85535 15.1905 9.03631 15.5123 9.35829C15.834 9.68026 16.0147 10.1169 16.0146 10.5721C16.0144 11.0273 15.8334 11.4637 15.5115 11.7855C15.1895 12.1073 14.7529 12.2879 14.2977 12.2878Z" fill="rgb(83, 83, 248)"></path></svg>